<?xml version="1.0" encoding="UTF-8" standalone="no"?>
<svg width="95px" height="80px" viewBox="0 0 95 80" version="1.1" xmlns="http://www.w3.org/2000/svg" xmlns:xlink="http://www.w3.org/1999/xlink">
    <!-- Generator: Sketch 50.2 (55047) - http://www.bohemiancoding.com/sketch -->
    <title>121eCommerce-logo</title>
    <desc>Created with Sketch.</desc>
    <defs></defs>
    <g id="Wireframes" stroke="none" stroke-width="1" fill="none" fill-rule="evenodd">
        <g id="Homepage" transform="translate(-140.000000, -30.000000)">
            <g id="121eCommerce-logo" transform="translate(140.000000, 30.000000)">
                <path d="M89.6327408,65.51536 L94.1191493,65.51536 L94.1191493,63.13376 L87.0326845,63.13376 L87.0326845,79.8092267 L94.1191493,79.8092267 L94.1191493,77.4254933 L89.6327408,77.4254933 L89.6327408,72.5452267 L93.1988535,72.5452267 L93.1988535,70.16176 L89.6327408,70.16176 L89.6327408,65.51536 Z M82.9939803,73.5876267 L82.9939803,75.9748267 C82.9939803,76.37216 82.9383183,76.68176 82.8291352,76.92176 C82.7162056,77.1612267 82.5634028,77.33296 82.3621634,77.4396267 C82.1625296,77.5430933 81.9230225,77.5972267 81.6457831,77.59216 C81.373093,77.5972267 81.1338535,77.5430933 80.9288676,77.4396267 C80.7289662,77.33296 80.576431,77.1612267 80.4672479,76.92176 C80.3559239,76.68176 80.300262,76.37216 80.300262,75.9748267 L80.300262,66.9678933 C80.3056141,66.3780267 80.427107,65.9564267 80.661262,65.6990933 C80.9029099,65.4438933 81.2269803,65.3180267 81.6457831,65.32656 C82.0653887,65.3180267 82.3899944,65.4438933 82.6295014,65.6990933 C82.8655296,65.9564267 82.9905014,66.3780267 82.9939803,66.9678933 L82.9939803,68.7564267 L85.4514028,68.7564267 L85.4514028,67.1358933 C85.4514028,66.2420267 85.3023465,65.48576 85.0141352,64.85936 C84.7224451,64.2380267 84.2889239,63.7654933 83.7143746,63.43296 C83.1398254,63.10976 82.4266563,62.94656 81.5775437,62.9446933 C80.7257549,62.94656 80.0123183,63.10976 79.436431,63.43296 C78.8632197,63.7654933 78.4313042,64.2380267 78.1396141,64.85936 C77.8479239,65.48576 77.7020789,66.2420267 77.7020789,67.1358933 L77.7020789,75.8054933 C77.7020789,76.69776 77.8479239,77.45536 78.1396141,78.0782933 C78.4313042,78.7014933 78.8632197,79.1774933 79.436431,79.50656 C80.0123183,79.8318933 80.7257549,79.9966933 81.5775437,79.9998933 C82.4266563,79.9966933 83.1398254,79.8318933 83.7143746,79.50656 C84.2889239,79.1774933 84.7224451,78.7014933 85.0141352,78.0782933 C85.3023465,77.45536 85.4514028,76.69776 85.4514028,75.8054933 L85.4514028,73.5876267 L82.9939803,73.5876267 Z M72.2680789,65.51536 C72.7246141,65.51056 73.0663465,65.6502933 73.2748113,65.9236267 C73.488093,66.20176 73.5940648,66.64016 73.5905859,67.23056 L73.5905859,68.87376 C73.5905859,69.31456 73.5282338,69.6660267 73.403262,69.9214933 C73.2748113,70.18256 73.0997972,70.3662933 72.865107,70.4766933 C72.635769,70.5868267 72.3550507,70.6412267 72.0320507,70.63536 L71.0146141,70.63536 L71.0146141,65.51536 L72.2680789,65.51536 Z M76.4959803,79.8092267 C76.3707408,79.5030933 76.291262,79.1878933 76.2564732,78.8660267 C76.2251634,78.5454933 76.2112479,78.1838933 76.2147268,77.7828267 L76.2147268,75.21216 C76.2168676,74.6308267 76.160938,74.1094933 76.057107,73.6388267 C75.9476563,73.1748267 75.7654169,72.77216 75.5136,72.4404267 C75.2601775,72.1078933 74.9200507,71.8430933 74.4897408,71.66336 C75.0656282,71.3868267 75.4927268,70.97216 75.7726423,70.40656 C76.0514873,69.8462933 76.1903746,69.13616 76.1903746,68.27856 L76.1903746,66.9678933 C76.1941211,66.11056 76.0603183,65.39856 75.7881634,64.8294933 C75.5205577,64.2606933 75.1022901,63.83696 74.5349662,63.5542933 C73.9655014,63.2740267 73.2330648,63.13376 72.3408676,63.13376 L68.419107,63.13376 L68.419107,79.8092267 L71.0146141,79.8092267 L71.0146141,73.0196267 L71.9143042,73.0196267 C72.3060789,73.01616 72.6328254,73.0876267 72.8790225,73.2238933 C73.1292338,73.36416 73.3162901,73.5876267 73.4380507,73.9012267 C73.5560648,74.21456 73.614938,74.62736 73.614938,75.13856 L73.614938,77.7596267 C73.614938,78.0956267 73.623769,78.3758933 73.6307268,78.59296 C73.6408958,78.8134933 73.6601634,78.99056 73.6810366,79.1332267 C73.7016423,79.27216 73.726262,79.39776 73.7570366,79.49616 C73.7851352,79.60096 73.8161775,79.7060267 73.8509662,79.8092267 L76.4959803,79.8092267 Z M62.3233183,65.51536 L66.8113324,65.51536 L66.8113324,63.13376 L59.723262,63.13376 L59.723262,79.8092267 L66.8113324,79.8092267 L66.8113324,77.4254933 L62.3233183,77.4254933 L62.3233183,72.5452267 L65.888093,72.5452267 L65.888093,70.16176 L62.3233183,70.16176 L62.3233183,65.51536 Z M50.5336845,63.13376 L46.9215437,63.13376 L46.9215437,79.8092267 L49.1868254,79.8092267 L49.1868254,68.0180267 L51.1253606,79.8092267 L53.5814451,79.8092267 L55.3773465,67.8518933 L55.3773465,79.8092267 L57.8350366,79.8092267 L57.8350366,63.13376 L54.2199521,63.13376 L52.4476,74.9724267 L50.5336845,63.13376 Z M37.7547127,63.13376 L34.1374873,63.13376 L34.1374873,79.8092267 L36.4078535,79.8092267 L36.4078535,68.0180267 L38.3445155,79.8092267 L40.7989944,79.8092267 L42.596769,67.8518933 L42.596769,79.8092267 L45.0544592,79.8092267 L45.0544592,63.13376 L41.4409803,63.13376 L39.6670225,74.9724267 L37.7547127,63.13376 Z M24.5952056,75.8054933 C24.5952056,76.69776 24.7480085,77.45536 25.0517408,78.0782933 C25.3538676,78.7014933 25.7964873,79.1774933 26.3830789,79.50656 C26.9677972,79.8318933 27.691938,79.9966933 28.5402479,79.9998933 C29.3925718,79.9966933 30.111093,79.8318933 30.6979521,79.50656 C31.2842761,79.1774933 31.7252901,78.7014933 32.0287549,78.0782933 C32.3324873,77.45536 32.4852901,76.69776 32.4852901,75.8054933 L32.4852901,67.1358933 C32.4852901,66.2420267 32.3324873,65.48576 32.0287549,64.85936 C31.7252901,64.2380267 31.2842761,63.7654933 30.6979521,63.43296 C30.111093,63.10976 29.3925718,62.94656 28.5402479,62.9446933 C27.691938,62.94656 26.9677972,63.10976 26.3830789,63.43296 C25.7964873,63.7654933 25.3538676,64.2380267 25.0517408,64.85936 C24.7480085,65.48576 24.5952056,66.2420267 24.5952056,67.1358933 L24.5952056,75.8054933 Z M27.1936563,66.9678933 C27.1968676,66.3780267 27.3202338,65.9564267 27.556262,65.6990933 C27.795769,65.4438933 28.1219803,65.3180267 28.5402479,65.32656 C28.9587831,65.3180267 29.2831211,65.4438933 29.5242338,65.6990933 C29.7605296,65.9564267 29.8820225,66.3780267 29.8889803,66.9678933 L29.8889803,75.9748267 C29.8820225,76.5630933 29.7605296,76.98496 29.5242338,77.2452267 C29.2831211,77.4974933 28.9587831,77.62336 28.5402479,77.6164267 C28.1219803,77.62336 27.795769,77.4974933 27.556262,77.2452267 C27.3202338,76.98496 27.1968676,76.5630933 27.1936563,75.9748267 L27.1936563,66.9678933 Z M20.7684451,73.5876267 L20.7684451,75.9748267 C20.7684451,76.37216 20.7146563,76.68176 20.6017268,76.92176 C20.4922761,77.1612267 20.3397408,77.33296 20.1385014,77.4396267 C19.937262,77.5430933 19.6974873,77.5972267 19.4215859,77.59216 C19.1438113,77.5972267 18.9061775,77.5430933 18.7030648,77.4396267 C18.5031634,77.33296 18.3506282,77.1612267 18.2395718,76.92176 C18.132262,76.68176 18.0749944,76.37216 18.0749944,75.9748267 L18.0749944,66.9678933 C18.0784732,66.3780267 18.2013042,65.9564267 18.4373324,65.6990933 C18.677107,65.4438933 19.0033183,65.3180267 19.4215859,65.32656 C19.8363746,65.3180267 20.1644592,65.4438933 20.4058394,65.6990933 C20.6418676,65.9564267 20.7649662,66.3780267 20.7684451,66.9678933 L20.7684451,68.7564267 L23.224262,68.7564267 L23.224262,67.1358933 C23.224262,66.2420267 23.0786845,65.48576 22.7869944,64.85936 C22.4950366,64.2380267 22.0615155,63.7654933 21.4885718,63.43296 C20.9142901,63.10976 20.2008535,62.94656 19.3504028,62.9446933 C18.4999521,62.94656 17.7865155,63.10976 17.2122338,63.43296 C16.6392901,63.7654933 16.2055014,64.2380267 15.9138113,64.85936 C15.6223887,65.48576 15.4765437,66.2420267 15.4765437,67.1358933 L15.4765437,75.8054933 C15.4765437,76.69776 15.6223887,77.45536 15.9138113,78.0782933 C16.2055014,78.7014933 16.6392901,79.1774933 17.2122338,79.50656 C17.7865155,79.8318933 18.4999521,79.9966933 19.3504028,79.9998933 C20.2008535,79.9966933 20.9142901,79.8318933 21.4885718,79.50656 C22.0615155,79.1774933 22.4950366,78.7014933 22.7869944,78.0782933 C23.0786845,77.45536 23.224262,76.69776 23.224262,75.8054933 L23.224262,73.5876267 L20.7684451,73.5876267 Z" id="Fill-1" fill="#202124"></path>
                <polygon id="Fill-4" fill="#202124" points="9.62740704 65.70624 14.1138155 65.70624 14.1138155 63.32464 7.0273507 63.32464 7.0273507 80.0001067 14.1138155 80.0001067 14.1138155 77.6163733 9.62740704 77.6163733 9.62740704 72.7355733 13.1940549 72.7355733 13.1940549 70.3523733 9.62740704 70.3523733"></polygon>
                <path d="M21.1792732,45.8218667 L21.1792732,31.9122667 L64.6023014,18.3877333 C64.6023014,12.9341333 60.2499634,10.8328 56.0911042,10.8328 L45.9006817,10.8328 C38.1679493,10.8328 35.6650338,13.0349333 35.6650338,17.444 L35.6650338,23.948 L21.1792732,28.3018667 L21.1792732,12.0429333 C22.0685268,8.25466667 24.2313155,5.34933333 27.6708507,3.32986667 C30.9570479,1.26213333 35.9275549,0.1544 42.5772873,0.00506666667 L5.19492113,0 L-0.000107042253,9.47493333 L-0.000107042253,9.53173333 L7.0272169,9.53173333 L7.0272169,41.748 L7.0272169,51.7869333 L7.0272169,58.4453333 L12.7978648,58.4453333 L19.4157521,58.4453333 L42.5772873,58.4453333 C35.9275549,58.2992 30.9570479,57.188 27.6708507,55.1189333 C24.6303155,53.3328 21.1792732,49.6018667 21.1792732,45.8218667" id="Fill-9" fill="#0280C7"></path>
                <path d="M86.2868676,0 L83.2685437,0 L77.4053042,0 L72.1669239,9.53013333 L79.1971915,9.53013333 L79.1971915,26.4349333 L35.8228676,39.9418667 L35.8228676,40.0008 C35.8228676,42.696 36.8386986,44.6434667 38.8684873,45.8602667 C40.3017831,46.6141333 42.9074592,47 46.6568817,47 L79.1971915,47 L79.1971915,58.4456 L94.1191493,58.4456 L94.1191493,12.2157333 L94.1191493,9.36906667 L94.1191493,0 L86.2868676,0 Z" id="Fill-10" fill="#202124"></path>
            </g>
        </g>
    </g>
</svg>